<?xml version="1.0" encoding="utf-8"?>
<!-- Generator: Adobe Illustrator 16.0.4, SVG Export Plug-In . SVG Version: 6.00 Build 0)  -->
<!DOCTYPE svg PUBLIC "-//W3C//DTD SVG 1.1//EN" "http://www.w3.org/Graphics/SVG/1.1/DTD/svg11.dtd">
<svg version="1.1" id="Layer_1" xmlns="http://www.w3.org/2000/svg" xmlns:xlink="http://www.w3.org/1999/xlink" x="0px" y="0px"
	 width="81px" height="83.064px" viewBox="0 0 81 83.064" enable-background="new 0 0 81 83.064" xml:space="preserve">
<g>
	<g>
		<path fill-rule="evenodd" clip-rule="evenodd" fill="#20C000" d="M40.467,1c22.215,0.235,38.938,17.425,39.759,37.924
			c0.969,24.269-17.93,40.923-37.815,41.66C17.861,81.496,1.561,62.559,0.707,42.923C-0.346,18.704,18.683,1.115,40.467,1z
			 M44.602,41.16c0,0,0,0,0.007,0c0-3.646,0.041-7.296-0.021-10.94c-0.037-1.988,0.879-3.562,2.291-4.642
			c3.703-2.83,7.76-2.728,11.286,0.293c3.61,3.092,1.804,7.799-1.82,9.566c-1.312,0.642-2.737,1.278-3.738,2.292
			c-2.065,2.096-2.612,3.86-0.714,5.707c1.226,1.198,2.823,1.644,4.498,1.159c2.665-0.77,5.16-1.862,7.306-3.751
			c2.873-2.523,4.413-5.745,5.093-9.365c0.53-2.827-0.36-5.474-1.718-7.992c-2.906-5.386-7.628-7.842-13.472-8.506
			c-3.467-0.396-6.689,0.597-9.695,2.188c-2.363,1.251-4.329,3.117-5.735,5.37c-1.66,2.666-2.282,5.647-2.214,8.854
			C36.088,37.961,35.979,44.538,36,51.11c0,1.629-0.538,3.032-1.719,4.088c-3.908,3.518-7.627,3.372-11.57,0.561
			c-1.576-1.125-2.456-3.028-2.219-4.826c0.275-2.06,1.42-3.883,3.569-4.896c1.513-0.718,2.968-1.667,4.216-2.778
			c0.738-0.659,1.308-1.792,1.442-2.781c0.329-2.357-2.831-4.585-5.306-3.723c-2.049,0.714-4.145,1.497-5.954,2.661
			c-4.087,2.629-6.21,6.549-6.642,11.391c-0.23,2.558,0.602,4.847,1.74,7.052c2.685,5.207,7.251,7.625,12.799,8.417
			c3.511,0.504,6.879-0.25,9.978-1.945c4.888-2.667,7.956-6.665,8.229-12.369C44.743,48.369,44.602,44.761,44.602,41.16z"/>
	</g>
	<path fill-rule="evenodd" clip-rule="evenodd" fill="#FFFFFF" d="M44.699,41.16c0,0,0,0,0.008,0c0-3.646,0.042-7.296-0.021-10.94
		c-0.036-1.988,0.882-3.562,2.294-4.642c3.701-2.83,7.757-2.728,11.284,0.293c3.611,3.092,1.802,7.799-1.819,9.566
		c-1.312,0.642-2.739,1.278-3.739,2.292c-2.063,2.096-2.613,3.86-0.715,5.707c1.228,1.198,2.824,1.644,4.5,1.159
		c2.664-0.77,5.16-1.862,7.305-3.751c2.874-2.523,4.415-5.745,5.092-9.365c0.531-2.827-0.359-5.474-1.718-7.992
		c-2.904-5.386-7.626-7.842-13.471-8.506c-3.467-0.396-6.69,0.597-9.694,2.188c-2.364,1.251-4.328,3.117-5.734,5.37
		c-1.662,2.666-2.283,5.647-2.218,8.854c0.136,6.568,0.025,13.145,0.046,19.717c0,1.629-0.536,3.032-1.718,4.088
		c-3.908,3.518-7.626,3.372-11.569,0.561c-1.576-1.125-2.456-3.028-2.221-4.826c0.277-2.06,1.422-3.883,3.57-4.896
		c1.513-0.718,2.969-1.667,4.216-2.778c0.738-0.659,1.308-1.792,1.442-2.781c0.328-2.357-2.831-4.585-5.305-3.723
		c-2.051,0.714-4.145,1.497-5.955,2.661c-4.085,2.629-6.21,6.549-6.64,11.391c-0.23,2.558,0.599,4.847,1.737,7.052
		c2.687,5.207,7.253,7.625,12.801,8.417c3.511,0.504,6.878-0.25,9.977-1.945c4.889-2.667,7.955-6.665,8.231-12.369
		C44.842,48.369,44.699,44.761,44.699,41.16z"/>
</g>
</svg>
