<?xml version="1.0" encoding="utf-8"?>
<!-- Generator: Adobe Illustrator 16.0.4, SVG Export Plug-In . SVG Version: 6.00 Build 0)  -->
<!DOCTYPE svg PUBLIC "-//W3C//DTD SVG 1.1//EN" "http://www.w3.org/Graphics/SVG/1.1/DTD/svg11.dtd">
<svg version="1.1" id="Layer_1" xmlns="http://www.w3.org/2000/svg" xmlns:xlink="http://www.w3.org/1999/xlink" x="0px" y="0px"
	 width="300px" height="300px" viewBox="0 0 300 300" enable-background="new 0 0 300 300" xml:space="preserve">
<g>
	<path fill="none" d="M-215.215,290.736c87.959,165.568,25.037,371.092-140.527,459.049
		c-165.566,87.957-371.086,25.041-459.047-140.525c-87.953-165.564-25.033-371.086,140.533-459.047
		C-508.693,62.26-303.174,125.174-215.215,290.736z"/>
	<text transform="matrix(0.923 -0.3847 0.3847 0.923 -680.8916 151.3486)"><tspan x="0" y="0" fill="#EE5A24" stroke="#EE5A24" stroke-width="0.25" stroke-miterlimit="10" font-family="'STYuanti-SC-Regular'" font-size="77.2469">摇</tspan><tspan x="129.827" y="10.237" fill="#EE5A24" stroke="#EE5A24" stroke-width="0.25" stroke-miterlimit="10" font-family="'STYuanti-SC-Regular'" font-size="77.2469" rotate="22.084">一</tspan><tspan x="246.283" y="68.506" fill="#EE5A24" stroke="#EE5A24" stroke-width="0.25" stroke-miterlimit="10" font-family="'STYuanti-SC-Regular'" font-size="77.2469" rotate="43.982">摇</tspan><tspan x="331.318" y="167.789" fill="#EE5A24" stroke="#EE5A24" stroke-width="0.25" stroke-miterlimit="10" font-family="'STYuanti-SC-Regular'" font-size="77.2469" rotate="61.237"> </tspan><tspan x="361.583" y="235.477" fill="#EE5A24" stroke="#EE5A24" stroke-width="0.25" stroke-miterlimit="10" font-family="'STYuanti-SC-Regular'" font-size="77.2469" rotate="73.861"> </tspan><tspan x="378.328" y="307.142" fill="#EE5A24" stroke="#EE5A24" stroke-width="0.25" stroke-miterlimit="10" font-family="'STYuanti-SC-Regular'" font-size="77.2469" rotate="90.988">吃</tspan><tspan x="365.84" y="436.766" fill="#EE5A24" stroke="#EE5A24" stroke-width="0.25" stroke-miterlimit="10" font-family="'STYuanti-SC-Regular'" font-size="77.2469" rotate="113.079">一</tspan><tspan x="305.534" y="552.237" fill="#EE5A24" stroke="#EE5A24" stroke-width="0.25" stroke-miterlimit="10" font-family="'STYuanti-SC-Regular'" font-size="77.2469" rotate="134.977">吃</tspan><tspan x="204.824" y="635.508" fill="#EE5A24" stroke="#EE5A24" stroke-width="0.25" stroke-miterlimit="10" font-family="'STYuanti-SC-Regular'" font-size="77.2469" rotate="152.237"> </tspan><tspan x="136.593" y="664.595" fill="#EE5A24" stroke="#EE5A24" stroke-width="0.25" stroke-miterlimit="10" font-family="'STYuanti-SC-Regular'" font-size="77.2469" rotate="164.863"> </tspan><tspan x="64.655" y="680.103" fill="#EE5A24" stroke="#EE5A24" stroke-width="0.25" stroke-miterlimit="10" font-family="'STYuanti-SC-Regular'" font-size="77.2469" rotate="-178.019">要</tspan><tspan x="-64.733" y="665.355" fill="#EE5A24" stroke="#EE5A24" stroke-width="0.25" stroke-miterlimit="10" font-family="'STYuanti-SC-Regular'" font-size="77.2469" rotate="-155.925">吃</tspan><tspan x="-179.111" y="603.083" fill="#EE5A24" stroke="#EE5A24" stroke-width="0.25" stroke-miterlimit="10" font-family="'STYuanti-SC-Regular'" font-size="77.2469" rotate="-134.04">吗</tspan><tspan x="-260.647" y="500.931" fill="#EE5A24" stroke="#EE5A24" stroke-width="0.25" stroke-miterlimit="10" font-family="'STYuanti-SC-Regular'" font-size="77.2469" rotate="-116.764"> </tspan><tspan x="-288.537" y="432.206" fill="#EE5A24" stroke="#EE5A24" stroke-width="0.25" stroke-miterlimit="10" font-family="'STYuanti-SC-Regular'" font-size="77.2469" rotate="-104.142"> </tspan><tspan x="-302.811" y="359.987" fill="#EE5A24" stroke="#EE5A24" stroke-width="0.25" stroke-miterlimit="10" font-family="'STYuanti-SC-Regular'" font-size="77.2469" rotate="-87.019">要</tspan><tspan x="-285.713" y="230.618" fill="#EE5A24" stroke="#EE5A24" stroke-width="0.25" stroke-miterlimit="10" font-family="'STYuanti-SC-Regular'" font-size="77.2469" rotate="-64.879">吃</tspan><tspan x="-221.372" y="117.391" fill="#EE5A24" stroke="#EE5A24" stroke-width="0.25" stroke-miterlimit="10" font-family="'STYuanti-SC-Regular'" font-size="77.2469" rotate="-43.001">嘛</tspan></text>
</g>
<g>
	<g>
		<circle fill="#FF901E" cx="153.525" cy="146.66" r="73.508"/>
		<circle fill="#333333" cx="112.951" cy="104.99" r="6.12"/>
		<circle fill="#333333" cx="196.126" cy="104.99" r="6.12"/>
		<path fill="#333333" stroke="#333333" stroke-linejoin="round" stroke-miterlimit="10" d="M202.29,118.192
			c0,0,1.039,22.025-46.35,22.025c-51.519,0-46.191-22.025-46.191-22.025s-4.286,17.03,46.272,17.03
			C202.326,135.222,202.29,118.192,202.29,118.192z"/>
		<path fill="#FF901E" d="M109.749,87.747c0,0,1.845-42.188,13.124-38.119c11.285,4.067,12.696,31.05,12.696,31.05"/>
		<path fill="#FF901E" d="M195.762,86.653c0,0-1.846-42.188-13.127-38.12c-11.281,4.068-12.693,31.05-12.693,31.05"/>
		<path fill="#EE5A24" d="M124.616,80.435c0,0-0.547-18.605-4.926-18.605c-4.377,0-9.663,25.874-9.663,25.874
			S120.785,80.161,124.616,80.435z"/>
		<path fill="#EE5A24" d="M180.619,79.341c0,0,0.547-18.605,4.924-18.605c4.378,0,9.661,25.874,9.661,25.874
			S184.448,79.067,180.619,79.341z"/>
		<path opacity="0.15" fill="#F65C2B" d="M209.014,98.446c5.943,9.747,9.369,21.197,9.369,33.449
			c0,35.53-28.803,64.333-64.332,64.333s-64.334-28.803-64.334-64.333c0-13.894,4.406-26.759,11.897-37.276
			c-13.341,13.307-21.597,31.71-21.597,52.041c0,40.597,32.912,73.507,73.509,73.507s73.507-32.91,73.507-73.507
			C227.033,128.211,220.237,111.352,209.014,98.446z"/>
		<path opacity="0.1" fill="#F65C2B" d="M124.616,80.982c0,0,3.557-13.953,0-22.162c-3.558-8.208-10.742,3.831-11.664,9.986
			c-0.921,6.156-2.925,19.444-2.925,19.444S120.923,78.793,124.616,80.982z"/>
		<path opacity="0.05" fill="#F65C2B" d="M124.616,80.982c0,0,3.557-13.953,0-22.162c-3.558-8.208-10.742,3.831-11.664,9.986
			c-0.921,6.156-2.925,19.444-2.925,19.444S120.923,78.793,124.616,80.982z"/>
		<path opacity="0.05" fill="#F65C2B" d="M180.557,79.888c0,0-3.556-13.954,0-22.161c3.557-8.209,10.742,3.83,11.664,9.986
			s2.924,19.443,2.924,19.443S184.25,77.699,180.557,79.888z"/>
		<path fill="#BE272D" d="M157.996,140.626c0,0,4.969-4.701,12.127-6.758c10.764-3.091,23.714-0.628,25.629,8.948
			c1.916,9.577,9.137,12.501,12.676,10.218c3.539-2.284,12.88-3.449,12.926,6.356c0.047,10.239-32.624,31.215-45.111-12.725
			C174.473,140.445,165.79,140.631,157.996,140.626z"/>
	</g>
	<circle fill="none" cx="155" cy="147" r="126.318"/>
	<text transform="matrix(0.923 -0.3848 0.3848 0.923 93.2617 35.876)"><tspan x="0" y="0" fill="#EE5A24" stroke="#EE5A24" stroke-width="0.25" stroke-miterlimit="10" font-family="'STYuanti-SC-Regular'" font-size="28.7442">摇</tspan><tspan x="48.299" y="3.806" fill="#EE5A24" stroke="#EE5A24" stroke-width="0.25" stroke-miterlimit="10" font-family="'STYuanti-SC-Regular'" font-size="28.7442" rotate="22.08">一</tspan><tspan x="91.653" y="25.497" fill="#EE5A24" stroke="#EE5A24" stroke-width="0.25" stroke-miterlimit="10" font-family="'STYuanti-SC-Regular'" font-size="28.7442" rotate="43.987">摇</tspan><tspan x="123.292" y="62.446" fill="#EE5A24" stroke="#EE5A24" stroke-width="0.25" stroke-miterlimit="10" font-family="'STYuanti-SC-Regular'" font-size="28.7442" rotate="61.243"> </tspan><tspan x="134.555" y="87.645" fill="#EE5A24" stroke="#EE5A24" stroke-width="0.25" stroke-miterlimit="10" font-family="'STYuanti-SC-Regular'" font-size="28.7442" rotate="73.873"> </tspan><tspan x="140.779" y="114.301" fill="#EE5A24" stroke="#EE5A24" stroke-width="0.25" stroke-miterlimit="10" font-family="'STYuanti-SC-Regular'" font-size="28.7442" rotate="90.994">吃</tspan><tspan x="136.131" y="162.523" fill="#EE5A24" stroke="#EE5A24" stroke-width="0.25" stroke-miterlimit="10" font-family="'STYuanti-SC-Regular'" font-size="28.7442" rotate="113.078">一</tspan><tspan x="113.683" y="205.501" fill="#EE5A24" stroke="#EE5A24" stroke-width="0.25" stroke-miterlimit="10" font-family="'STYuanti-SC-Regular'" font-size="28.7442" rotate="134.982">吃</tspan><tspan x="76.184" y="236.495" fill="#EE5A24" stroke="#EE5A24" stroke-width="0.25" stroke-miterlimit="10" font-family="'STYuanti-SC-Regular'" font-size="28.7442" rotate="152.253"> </tspan><tspan x="50.803" y="247.308" fill="#EE5A24" stroke="#EE5A24" stroke-width="0.25" stroke-miterlimit="10" font-family="'STYuanti-SC-Regular'" font-size="28.7442" rotate="164.873"> </tspan><tspan x="24.023" y="253.076" fill="#EE5A24" stroke="#EE5A24" stroke-width="0.25" stroke-miterlimit="10" font-family="'STYuanti-SC-Regular'" font-size="28.7442" rotate="-178.001">要</tspan><tspan x="-24.135" y="247.569" fill="#EE5A24" stroke="#EE5A24" stroke-width="0.25" stroke-miterlimit="10" font-family="'STYuanti-SC-Regular'" font-size="28.7442" rotate="-155.903">吃</tspan><tspan x="-66.677" y="224.39" fill="#EE5A24" stroke="#EE5A24" stroke-width="0.25" stroke-miterlimit="10" font-family="'STYuanti-SC-Regular'" font-size="28.7442" rotate="-134.023">吗</tspan><tspan x="-97.019" y="186.348" fill="#EE5A24" stroke="#EE5A24" stroke-width="0.25" stroke-miterlimit="10" font-family="'STYuanti-SC-Regular'" font-size="28.7442" rotate="-116.737"> </tspan><tspan x="-107.379" y="160.792" fill="#EE5A24" stroke="#EE5A24" stroke-width="0.25" stroke-miterlimit="10" font-family="'STYuanti-SC-Regular'" font-size="28.7442" rotate="-104.127"> </tspan><tspan x="-112.684" y="133.903" fill="#EE5A24" stroke="#EE5A24" stroke-width="0.25" stroke-miterlimit="10" font-family="'STYuanti-SC-Regular'" font-size="28.7442" rotate="-86.997">要</tspan><tspan x="-106.299" y="85.757" fill="#EE5A24" stroke="#EE5A24" stroke-width="0.25" stroke-miterlimit="10" font-family="'STYuanti-SC-Regular'" font-size="28.7442" rotate="-64.852">吃</tspan><tspan x="-82.337" y="43.636" fill="#EE5A24" stroke="#EE5A24" stroke-width="0.25" stroke-miterlimit="10" font-family="'STYuanti-SC-Regular'" font-size="28.7442" rotate="-42.973">嘛</tspan></text>
</g>
</svg>
