<?xml version="1.0" encoding="utf-8"?>
<!-- Generator: Adobe Illustrator 16.0.4, SVG Export Plug-In . SVG Version: 6.00 Build 0)  -->
<!DOCTYPE svg PUBLIC "-//W3C//DTD SVG 1.1//EN" "http://www.w3.org/Graphics/SVG/1.1/DTD/svg11.dtd">
<svg version="1.1" id="Layer_1" xmlns="http://www.w3.org/2000/svg" xmlns:xlink="http://www.w3.org/1999/xlink" x="0px" y="0px"
	 width="329.305px" height="336.333px" viewBox="0 0 329.305 336.333" enable-background="new 0 0 329.305 336.333"
	 xml:space="preserve">
<g opacity="0.3">
	<defs>
		<rect id="SVGID_1_" x="-462" y="-2" opacity="0.3" width="413" height="736"/>
	</defs>
	<clipPath id="SVGID_2_">
		<use xlink:href="#SVGID_1_"  overflow="visible"/>
	</clipPath>
	<g opacity="0.4" clip-path="url(#SVGID_2_)">
		<path fill-rule="evenodd" clip-rule="evenodd" fill="#29A8DF" d="M121.102,170.864c-1.825,15.445-3.469,30.117-5.334,44.762
			c-0.77,6.044-5.907,10.436-12.8,10.08c-6.14-0.317-12.236-1.843-18.288-3.137c-1.013-0.216-2.34-1.912-2.433-3.017
			c-0.842-10.014-1.421-20.049-2.116-30.075c-0.867-12.488-1.772-24.975-2.712-38.175c4.003-0.771,7.594-1.655,11.239-2.103
			c2.623-0.322,5.322-0.168,7.979-0.042c5.271,0.249,9.37,0.371,12.512-6.036c3.633-7.408,11.943-9.501,19.089-7.026
			c7.777,2.692,12.542,9.18,12.638,17.406c0.056,4.82,0.045,9.364-4.033,13.152c-3.131,2.908-6.207,4.735-10.529,4.239
			C124.706,170.709,123.06,170.864,121.102,170.864z M84.228,171.355c0.76,10.215,1.504,20.22,2.248,30.224
			c2.317-2.422,2.629-6.203,6.752-3.691c2.291,1.396,6.7,1.564,5.132,5.795c-2.062,5.562-6.161,7.33-10.97,5.578
			c-1.144,6.806-0.879,7.942,2.459,9.312c6.695,2.747,13.219,1.615,19.529-1.253c0.865-0.394,1.583-1.957,1.691-3.046
			c1.329-13.348,2.532-26.708,3.789-40.306C104.058,177.217,93.91,176.76,84.228,171.355z M81.107,168.494
			c4.75-4.241,10.289-3.58,15.521-3.248c5.344,0.339,10.632,1.56,16.092,2.417c-3.418-4.997-6.869-9.468-13.813-7.854
			c-0.878,0.204-1.94-0.201-2.877-0.468c-5.316-1.518-10.621-3.078-15.672-4.549C80.602,159.231,80.842,163.622,81.107,168.494z
			 M85.153,168.246c8.271,6.559,20.883,7.729,27.425,2.922C107.118,168.303,96.478,167.118,85.153,168.246z M83.484,152.064
			c5.1,3.859,19.803,6.607,22.646,4.095c-0.104-1.183-0.226-2.578-0.358-4.095C98.188,152.064,90.969,152.064,83.484,152.064z
			 M91.277,200.088c-0.876,2.824-4.024,5.723,1.099,8.197c1.236-2.047,2.399-3.973,3.597-5.954
			C94.102,201.438,92.771,200.802,91.277,200.088z"/>
		<path fill-rule="evenodd" clip-rule="evenodd" fill="#29A8DF" d="M-46.92,65.205c7.092,4.896,14.089,9.938,21.317,14.625
			c3.259,2.112,6.894,3.72,10.507,5.191c5.124,2.088,6.394,5.725,3.94,10.523c-4.675,9.144-12.741,13.681-22.08,15.784
			c-16.076,3.621-32.036,2.764-45.988-6.775c-11.116-7.6-16.693-19.288-18.579-32.511c-1.352-9.482-0.549-18.832,2.426-28.069
			c5.375-16.694,16.637-27.13,33.164-32.143c19.44-5.896,36.874-1.916,51.323,12.203c9.216,9.005,14.07,20.371,13.859,33.684
			c-0.075,4.685-2.111,6.314-6.265,6.109c-3.111-0.154-6.204-0.885-9.31-0.916c-11.249-0.116-22.5-0.046-33.75-0.046
			C-46.543,63.646-46.731,64.425-46.92,65.205z M-20.001,38.637c-3.48-4.647-6.33-10.019-10.614-13.74
			c-4.412-3.834-10.467-4.547-16.514-5.387c-6.451-0.895-11.235,1.176-16.716,3.463c-5.585,2.331-8.794,7.136-13.396,10.299
			c-5.442,3.74-7.54,9.317-9.837,14.805c-5.3,12.665-1.214,24.618,4.593,35.671c2.729,5.193,7.899,9.572,12.88,12.981
			c4.887,3.345,10.931,5.006,16.487,7.357c0.41,0.174,0.987-0.008,1.48-0.075c4.523-0.619,9.082-1.066,13.552-1.957
			c2.115-0.421,4.193-1.482,6.043-2.644c1.871-1.176,3.482-2.786,5.132-4.289c2.84-2.587,5.621-5.238,8.337-7.777
			c-4.117-2.725-6.993-4.883-10.124-6.569c-1.193-0.643-3.414-0.83-4.399-0.136c-3.102,2.185-6.073,3.114-9.626,1.308
			c-3.447-1.753-4.426-4.711-4.121-8.258c0.284-3.302-0.154-6.213-3.043-8.399c-0.618-0.469-0.684-1.666-1.089-2.755
			c13.147-0.785,25.916-1.547,39.652-2.367c-1.922-4.95-3.529-9.094-5.345-13.771c-3.651,4.612-8.692,5.937-11.635,3.501
			c-2.986-2.473-4.983-5.538-2.604-9.488C-28.188,35.893-24.594,38.486-20.001,38.637z M-93.08,63.408
			c1.967-7.37,2.868-14.861,5.938-21.323c5.011-10.551,13.663-17.55,24.618-22.391c7.231-3.195,14.257-3.128,21.29-1.994
			c9.171,1.478,16.516,6.288,20.178,15.524c1.601,4.036,3.002,8.386,5.607,11.724c2.558,3.275,4.636,6.112,4.48,10.518
			c-0.062,1.787,1.327,4.799,2.677,5.208c2.521,0.765,5.508,0.151,8.265-0.188c0.452-0.056,1.132-1.703,1.005-2.505
			c-1.816-11.48-5.052-22.463-13.401-31.043c-20.351-20.91-51.097-19.572-70.271,0.488C-96.501,41.872-99.199,60.06-93.492,79.321
			c3.876,13.082,11.844,22.335,24.627,27.509c9.708,3.929,19.803,4.98,29.837,3.052c10.109-1.943,19.229-6.353,25.495-15.348
			c1.843-2.646,2.229-4.693-0.584-5.976c-0.96-0.438-3.267,1.402-4.591,2.605c-1.737,1.579-2.804,4.016-4.695,5.283
			c-7.476,5.011-14.832,10.559-24.763,9.073c-1.003-0.149-2.128,0.778-3.237,1.009c-0.939,0.196-2.307,0.541-2.854,0.077
			c-5.338-4.522-12.523-4.491-18.493-8.28C-86.04,89.891-87.645,76.143-93.08,63.408z"/>
		<path fill-rule="evenodd" clip-rule="evenodd" fill="#29A8DF" d="M46.882,286.005c-0.36,4.717-1.64,11.55-8.325,16.136
			c-1.015,0.695-1.281,2.565-1.767,3.938c-7.305,20.637-14.497,41.313-22.019,61.871c-0.731,2-3.457,3.271-5.257,4.88
			c-1.13-1.963-3.021-3.836-3.268-5.904c-1.572-13.207-2.973-26.442-4.046-39.699c-0.693-8.568-0.657-17.194-1.146-25.783
			c-0.078-1.363-1.281-2.636-1.817-4.007c-0.38-0.974-0.682-2.037-0.721-3.071c-0.064-1.775,0.544-3.679,0.1-5.319
			c-2.461-9.098,1.307-21.183,9.222-27.058c8.207-6.093,17.334-7.195,26.314-2.056C43.001,264.996,47.057,273.183,46.882,286.005z
			 M7.604,266.365c-9.401,7.898-9.247,27.458,1.17,35.168c1.09-1.393,2.265-2.893,3.193-4.078c1.793,0.494,3.871,1.759,4.766,1.184
			c2.711-1.745,3.455-0.992,4.339,1.733c1.163,3.586,3.658,3.531,6.549,1.687c0.94-0.6,2.212-0.947,3.333-0.951
			c6.262-0.024,9.007-2.168,10.371-6.991c-2.896-3.409-5.896-5.707-7.207-8.735c-3.043-7.025-3.218-7.514-11.262-7.517
			c-1.993-0.001-3.996-0.129-5.978,0.025c-4.189,0.328-6.312-2.204-7.694-5.555C8.41,270.462,8.121,268.389,7.604,266.365z
			 M40.66,289.776c5.168-4.61,3.36-9.264,2.424-13.622c-2.905-13.53-17.332-20.41-28.793-14.25
			c-1.549,0.832-3.057,3.045-3.285,4.788c-0.751,5.738,2.136,10.06,10.414,8.663c7.952-1.34,11.492,0.422,14.607,7.851
			C36.985,285.488,38.919,287.362,40.66,289.776z M25.954,323.229c-0.359,0.235-0.719,0.472-1.078,0.707
			c-0.466-0.406-0.999-0.759-1.38-1.234c-0.462-0.576-0.795-1.257-1.202-1.92c-4.632,3.434-4.632,3.434-2.125,6.695
			c7.768-1.715,9.643-7.632,10.751-14.659c-3.73,0.486-2.419,6.395-6.706,5.385c0.169,0.73,0.272,1.484,0.523,2.186
			C25.084,321.356,25.543,322.284,25.954,323.229z M9.882,369.243c0.632-0.033,1.265-0.066,1.897-0.1
			c1.444-3.844,2.89-7.688,4.335-11.531c-0.406-0.338-0.812-0.676-1.218-1.014c-1.037,1.154-2.074,2.308-3.445,3.833
			c-0.513,0-1.979,0-4.254,0C8.192,363.697,9.037,366.471,9.882,369.243z M3.495,310.966c1.844-0.976,3.242-1.46,4.299-2.35
			c0.925-0.779,2.038-2.03,2.008-3.041c-0.028-0.919-1.335-2.063-2.346-2.622c-1.298-0.716-2.864-0.945-4.854-1.548
			C2.944,305.078,3.25,308.343,3.495,310.966z M7.287,313.762c-5.954,2.412-2.46,6.979-3.537,11.092
			c2.319-2.813,4.115-4.993,6.029-7.314C9.066,316.458,8.296,315.291,7.287,313.762z M19.517,333.203
			c-3.991,2.228-2.657,4.643-0.542,6.85c0.548,0.571,2.573,0.786,2.698,0.541C23.194,337.612,22.684,335.042,19.517,333.203z"/>
		<path fill-rule="evenodd" clip-rule="evenodd" fill="#29A8DF" d="M71.137,263.385c0-3.828,0.235-7.676-0.068-11.48
			c-0.288-3.61,1.402-5.298,4.605-5.718c11.418-1.5,22.823-3.338,34.387-1.169c3.212,0.603,6.651,0.308,9.707,1.293
			c1.667,0.537,3.941,2.924,3.902,4.425c-0.31,12.207-1.085,24.402-1.755,36.6c-0.308,5.602-0.853,11.193-1.018,16.798
			c-0.426,14.419-0.644,28.844-1.065,43.263c-0.135,4.606,0.625,9.882-1.362,13.604c-1.844,3.45-6.495,6.534-10.46,7.483
			c-8.479,2.031-17.083,0.674-25.56-1.784c-6.056-1.757-6.933-6.279-7.237-11.155c-0.569-9.081-0.754-18.186-1.073-27.281
			c-0.354-10.093-0.511-20.196-1.066-30.278c-0.635-11.53-1.614-23.042-2.444-34.562C70.799,263.409,70.968,263.396,71.137,263.385z
			 M116.033,292.59c-13.449,5.3-25.668,8.308-38.539,0.022c0.571,3.932,1.236,6.66,1.321,9.407
			c0.433,13.936,0.735,27.876,1.035,41.815c0.087,3.997-0.341,8.045,0.169,11.979c0.247,1.908,1.71,4.564,3.316,5.244
			c10.328,4.371,20.585,4.753,29.819-1.543c0-6.854-0.263-13.153,0.052-19.425C113.979,324.728,115.016,309.379,116.033,292.59z
			 M121.409,253.428c-17.097,7.324-26.012,9.52-47.854,0.783c0.575,12.963,1.153,25.984,1.73,39.006
			c-0.253-4.714,2.919-6.062,6.604-6.982c8.229-2.058,16.557-2.378,24.885-0.989c9.875,1.646,10.38,2.385,11.136,12.666
			c0.034,0.454,0.317,0.89,0.656,1.786C119.53,284.02,120.464,268.818,121.409,253.428z M120.764,250.054
			c-16.271-4.959-31.24-3.661-46.988,0.389C89.604,258.595,104.608,259.334,120.764,250.054z M114.593,290.447
			c-12.506-3.75-23.957-3.102-35.446-0.506C90.321,298.584,101.827,295.051,114.593,290.447z"/>
		<path fill-rule="evenodd" clip-rule="evenodd" fill="#29A8DF" d="M59.794,92.869c-1.301-8.602-2.49-16.525-3.698-24.445
			c-1.206-7.897-2.431-15.793-3.574-23.219c-13.25,12.743-24.323,27.486-29.79,46.328c2.235,0.405,4.35,0.489,6.24,1.183
			c8.882,3.259,10.76,13.104,3.687,21.507c-4.684,5.563-11.357,6.947-18.288,5.509c-5.818-1.207-9.212-5.505-10.865-10.999
			c-2.496-8.296,2.508-15.567,10.908-16.748c1.372-0.193,3.323-2.167,3.567-3.568c2.47-14.145,10.331-25.296,19.226-35.979
			c4.907-5.893,9.41-12.124,14.368-17.972c1.074-1.267,3.292-1.972,5.03-2.067c0.686-0.037,1.696,2.23,2.193,3.582
			c0.378,1.026,0.178,2.266,0.24,3.542c12.361-11.604,34.325-9.116,37.669,2.805c-6.979,7.867-8.094,8.015-36.985,4.728
			c2.086,15.215,4.15,30.274,6.211,45.3c6.412-1.309,12.898,3.126,13.747,7.536c1.513,7.859-0.118,15.054-7.029,18.644
			c-7.548,3.919-15.525,2.899-20.914-2.475c-3.929-3.917-5.404-8.502-4.164-13.957C48.921,96.175,52.709,93.198,59.794,92.869z
			 M66.445,100.638c-4.391-1.938-7.585-3.347-10.723-4.73c-3.854,2.929-6.852,6.148-5.711,11.344
			c1.39,6.332,8.88,11.649,15.172,10.87c7.15-0.886,12.575-6.62,12.582-13.505c0.003-3.632-1.653-6.786-4.901-8.186
			c-2.487-1.072-5.518-0.887-9.206-1.381C64.853,97.444,65.325,98.393,66.445,100.638z M21.084,100.753
			c-1.014-0.859-2.688-2.224-4.297-3.66c-2.748-2.451-5.085-2.916-7.96,0.237c-2.919,3.201-3.864,6.716-2.524,10.47
			c1.93,5.405,5.669,9.242,11.761,9.873c3.873,0.4,11.564-2.788,13.971-8.176c2.938-6.58,3.02-8.754-1.684-12.601
			c-1.378-1.127-4.104-1.392-5.917-0.921C23.213,96.293,22.509,98.597,21.084,100.753z M62.973,41.27
			c9.211-0.55,17.593-1.05,26.423-1.577C83.512,32.525,69.224,33.338,62.973,41.27z M62.609,43.553
			c11.506,5.583,25.584,4.345,28.679-1.342C81.75,42.657,72.18,43.105,62.609,43.553z M59.113,59.719
			c-0.479,0.057-0.958,0.113-1.438,0.17c1.231,8.139,2.462,16.276,3.693,24.415c0.423-0.056,0.846-0.11,1.269-0.166
			C61.463,75.998,60.288,67.858,59.113,59.719z"/>
		<path fill-rule="evenodd" clip-rule="evenodd" fill="#29A8DF" d="M29.47,217.128c0.646-8.637,1.353-18.068,2.047-27.34
			c-19.104-6.139-20.683-23.619-20.129-38.359c0.351-9.343,3.783-13.685,13.979-13.758c9.053-0.064,18.07-1.33,26.839,1.581
			c1.774,0.589,3.967,2.693,4.293,4.416c2.104,11.122,2.313,22.295-2.045,33c-2.263,5.559-5.955,10.648-16.576,12.846
			c0,7.721-0.047,15.523,0.025,23.325c0.026,2.877,1.274,4.487,4.569,4.384c2.24-0.07,4.591,0.427,6.743,1.125
			c4.108,1.333,7.555,3.646,7.509,8.543c-0.038,4.062-3.76,7.583-9.304,7.819c-10.005,0.427-20.044,0.3-30.062,0.078
			c-4.517-0.1-7.97-3.325-7.801-7.354c0.099-2.345,3.815-5.271,6.554-6.592C19.853,219.036,24.211,218.509,29.47,217.128z
			 M39.572,225.623c-0.523,0.034-1.047,0.067-1.57,0.101c-3.373-11.919-3.339-24.144-3.162-36.719
			c-1.102,1.421-1.837,3.105-1.834,4.788c0.004,2.433,1.005,4.91,0.771,7.288c-0.812,8.215-1.976,16.395-3.006,24.588
			c-0.538,0.032-1.077,0.064-1.615,0.097c-0.266-1.833-0.532-3.667-0.79-5.448c-3.475,0.849-7.073,1.375-10.378,2.659
			c-2.233,0.867-4.054,2.802-6.059,4.259c1.828,1.63,3.55,4.506,5.502,4.672c8.166,0.697,16.403,0.776,24.61,0.692
			c5.077-0.053,9.457-1.996,12.213-6.856c-3.983-4.891-8.866-6.608-14.682-5.617C39.572,222.125,39.572,223.874,39.572,225.623z
			 M51.646,163.429c-6.141,0.837-11.986,2.5-17.717,2.168c-5.622-0.326-11.127-2.681-16.669-4.141
			c3.031,15.448,7.976,21.587,17.484,21.68C43.32,183.219,48.993,176.605,51.646,163.429z M54.405,144.546
			c-13.908,5.251-26.562,5.032-39.357-0.594c-0.507,5.626-0.987,10.964-1.468,16.302c0.562,0.426,1.123,0.852,1.685,1.277
			c-1.308-5.479,2.019-5.349,4.698-5.824c8.282-1.469,16.52-1.595,24.829,0.239c4.572,1.009,9.873,0.426,9.613,4.825
			C54.405,157.278,54.405,151.293,54.405,144.546z M52.315,142.275c-11.916-4.582-23.277-2.352-34.62-0.722
			C28.819,147.225,40.099,147.715,52.315,142.275z M19.213,158.144c8.007,5.981,20.432,6.392,29.331,2.044
			C44.258,157.578,38.035,156.937,19.213,158.144z"/>
		<path fill-rule="evenodd" clip-rule="evenodd" fill="#29A8DF" d="M-14.699,191.521c1.729,2.682,3.156,4.897,4.764,7.393
			c4.428-2.01,9.373-2.928,13.139,2.103c2.768,3.697,1.962,7.644-0.648,12.404c0.054,2.968,1.318,7.048-0.136,8.629
			c-1.959,2.131-6.012,2.336-10.329,3.747c-0.567,2.908-2.049,6.994-8.396,6.35c-1.126-0.114-3.029,2.956-3.828,4.868
			c-3.72,8.907-5.226,18.316-4.893,27.907c0.14,4.006-1.055,6.865-4.866,7.162c-4.814,0.375-9.737-0.128-14.547-0.762
			c-0.671-0.088-1.338-3.075-1.361-4.729c-0.123-8.942-1.021-17.723-5.155-25.816c-1.33-2.604-3.22-4.923-5.071-7.7
			c-4.328,2.443-6.191-0.646-7.875-3.692c-4.639,0.641-9.979,1.979-12.287-2.715c-2.124-4.315-1.311-9.46,3.085-12.945
			c-4.009-5.123-5.178-12.316-2.276-16.503c3.695-5.334,9.146-5.853,15.208-4.581c0.1-0.782,0.272-1.585,0.293-2.392
			c0.207-8.17,5.104-11.396,12.864-8.577c0.93,0.337,2.281,0.242,3.181-0.188c4.425-2.122,7.26-1.528,10.777,2.68
			c4.948-2.65,10.113-5.242,15.482-0.967C-14.628,185.541-13.661,188.672-14.699,191.521z M-62.291,224.515
			c1.334,2.361,2.521,4.463,3.708,6.565c2.046-1.685,4.091-3.37,5.845-4.814c1.239,1.235,3.017,3.005,4.794,4.774
			c1.436-2.492,2.87-4.984,4.247-7.376c8.023,9.194,8.777,9.047,14.723-3.252c1.863,5.168,3.061,5.594,7.099,2.369
			c-1.44-1.714-2.879-3.424-3.591-4.271c1.661-3.38,4.488-6.469,3.831-8.327c-1.551-4.388-5.861-3.753-8.578-2.701
			c-1.854-3.141-3.453-5.846-5.051-8.551c-1.793,2.062-3.587,4.123-5.468,6.286c-1.633-2.768-3.396-7.828-8.676-1.471
			c-0.04-2.278,0.725-3.98,0.395-5.433c-0.357-1.566-2.153-4.244-2.605-4.105c-2.133,0.656-4.021,2.11-6.18,3.388
			c-7.93-4.254-13.35-3.762-15.445,2.143c-0.905,2.551-0.872,5.95,0.057,8.478c0.778,2.115,3.48,3.522,5.299,5.215
			c-6.753,5.374-8.349,8.31-6.112,11.787C-72.172,228.063-67.34,227.713-62.291,224.515z M-28.323,227.007
			c-4.679,6.522-8.155,7.26-14.327,3.927c-3.355,1.463-6.045,2.635-8.875,3.868c7.798,9.717,8.903,21.712,8.442,33.917
			c2.047,0.553,3.599,1.192,5.201,1.368c8.142,0.89,9.889-0.806,10.049-8.808c0.222-11.075,2.68-21.645,8.162-32.333
			C-22.681,228.271-25.514,227.637-28.323,227.007z M-28.348,203.482c0.323-3.696,2.162-5.625,5.79-5.494
			c2.763,0.101,5.518,0.393,9.906,0.723c-1.83-1.479-2.814-2.057-3.497-2.884c-0.79-0.958-1.993-2.25-1.833-3.196
			c0.624-3.688-0.016-7.056-3.532-8.373c-3.713-1.391-7.445-0.523-9.879,3.244c-0.616,0.954-1.438,1.775-1.809,2.225
			c-2.287-2.593-3.897-5.996-6.065-6.398c-1.883-0.35-4.396,2.695-5.675,3.578c-3.213-1.196-6.109-3.355-8.604-2.963
			c-4.209,0.663-4.071,4.439-3.144,7.934c6.057-1.354,5.775-1.147,9.921,4.508c1.143,1.559,5.009,2.679,6.775,1.947
			C-32.909,195.398-30.624,196.146-28.348,203.482z M-11.612,206.238c-3.414-2.531-5.762-4.888-8.598-6.084
			c-1.212-0.512-3.445,1.398-6.24,2.678c5.048,2.511,9.323,4.621,8.107,9.554c-0.914,3.705-1.601,6.995-1.33,10.96
			c0.189,2.772,1.015,3.837,2.784,4.726c1.132,0.569,3.536,0.854,3.888,0.309c1.057-1.637,1.64-3.708,1.912-5.678
			c0.188-1.352-0.451-2.816-0.789-4.591c3.017,1.555,5.196,3.25,7.612,3.713c1.491,0.285,3.342-1.309,5.031-2.059
			c-0.653-1.325-1.109-2.812-2.021-3.926c-0.78-0.954-2.083-1.483-2.321-1.643c2.276-2.994,5.008-5.053,5.255-7.375
			c0.214-2.017-1.91-5.53-3.828-6.288C-7.692,198.345-9.672,203.793-11.612,206.238z"/>
		<path fill-rule="evenodd" clip-rule="evenodd" fill="#29A8DF" d="M41.733-80.882c0.659,1.894,1.599,3.741,1.928,5.69
			c1.497,8.883,2.964,17.776,4.128,26.707c0.37,2.842,1.566,3.598,4.157,3.65c12.938,0.261,25.889,0.388,38.807,1.08
			c6,0.321,12.038,1.418,17.876,2.89c7.061,1.78,8.236,4.239,7.202,11.367C113.34-12.328,103.563-0.918,87.903,5.727
			c-2.191,0.93-2.904,1.217-2.376,4.064c0.688,3.715-2.889,4.91-5.92,4.992C71.572,15,63.517,15.095,55.49,14.752
			c-3.742-0.159-7.722-0.925-7.509-6.467c0.042-1.087-1.574-2.695-2.803-3.305C28.747-3.172,21.363-16.654,22.244-34.623
			c0.394-8.011,1.522-9.542,9.261-9.317c2.398,0.07,4.821-0.753,7.53-1.219c-3.68-8.767-7.268-17.315-10.855-25.864
			c0.744-0.333,1.487-0.666,2.23-0.999c6.164,7.876,7.864,18.17,13.455,26.487c-1.226-11.726-4.152-23.27-4.381-35.044
			C40.234-80.68,40.984-80.781,41.733-80.882z M113.15-35.735c-29.971,4.588-59.031,3.404-87.95-4.161
			c-1.888,16.104,2.371,29.769,16.021,38.99c16.2,10.943,33.571,10.628,50.307,1.631C105.461-6.767,113.202-18.894,113.15-35.735z
			 M49.467-42.081c-0.406,0.599-0.812,1.198-1.22,1.797c1.484,1.132,2.957,3.229,4.455,3.247
			c17.335,0.223,34.675,0.147,52.013,0.063c0.672-0.004,1.339-0.89,2.841-1.955C87.636-42.732,68.537-42.149,49.467-42.081z
			 M82.055,8.627c-10.84,0-21.397,0-31.427,0C54.417,14.499,76.89,15.222,82.055,8.627z"/>
		<path fill-rule="evenodd" clip-rule="evenodd" fill="#29A8DF" d="M33.753,396.045c0.466-7.285,0.554-14.599,1.565-21.782
			c0.448-3.178,2.047-6.904,4.376-8.972c6.513-5.779,5.62-15.265,3.681-21.84c-1.01-3.422-0.535-7.69,0.632-11.112
			c0.385-1.126,5.066-1.105,7.74-0.934c0.782,0.051,1.554,2.375,2.091,3.751c2.604,6.668-1.329,13.432,0.151,20.031
			c0.671,2.992,1.972,6.685,4.24,8.302c4.598,3.277,6.28,7.704,6.522,12.599c0.654,13.254,0.845,26.532,1.087,39.803
			c0.14,7.701-0.717,9.332-8.354,10.53c-5.085,0.798-10.489-0.073-15.709-0.602c-4.543-0.46-6.255-3.902-6.59-7.965
			C34.586,410.604,34.219,403.337,33.753,396.045z M48.676,343.412c-0.646,0.384-1.293,0.769-1.939,1.152
			c0.249,2.253,0.968,4.574,0.65,6.743c-0.664,4.54-0.454,10.329-3.155,13.217c-5.74,6.137-7.557,12.864-7.349,20.66
			c0.256,9.596,0.757,19.185,0.948,28.781c0.162,8.149,0.604,8.972,8.552,10.058c2.941,0.401,6.241,0.815,8.906-0.121
			c2.833-0.995,7.818-0.2,7.767-5.173c-0.147-14.421-0.35-28.854-1.179-43.243c-0.17-2.96-2.522-6.584-4.975-8.444
			c-4.096-3.105-6.208-6.467-5.807-11.576c0.222-2.812,0.284-5.688-0.076-8.471C50.854,345.721,49.494,344.602,48.676,343.412z"/>
		<path fill-rule="evenodd" clip-rule="evenodd" fill="#29A8DF" d="M92.136,56.457c10.369-1.906,20.356-2.33,30.512,0.663
			c-0.963,8.578-1.894,16.678-2.777,24.782c-1.033,9.468-1.965,18.947-3.129,28.397c-0.123,0.994-1.344,2.177-2.351,2.685
			c-6.383,3.214-12.701,2.822-18.731-0.953c-0.759-0.475-1.401-1.716-1.458-2.642c-0.755-12.359-1.477-24.723-2.027-37.092
			C91.943,67.134,92.136,61.952,92.136,56.457z M94.504,61.168c0.46,11.774,0.863,23.291,1.385,34.803
			c0.187,4.108,0.561,8.216,1.072,12.295c0.122,0.973,1.051,2.544,1.754,2.628c4.04,0.484,8.134,0.853,12.186,0.684
			c1.109-0.046,2.826-1.941,3.072-3.218c0.713-3.694,0.773-7.511,1.174-11.271c0.557-5.222,1.192-10.435,1.788-15.652
			c0.722-6.319,1.438-12.64,2.181-19.174C110.393,66.596,102.254,65.523,94.504,61.168z M118.213,58.283c-7.42,0-14.442,0-21.771,0
			C103.168,63.978,112.676,64.052,118.213,58.283z"/>
		<path fill-rule="evenodd" clip-rule="evenodd" fill="#29A8DF" d="M96.502,191.841c5.316-0.486,9.673-2.183,11.955-0.695
			c1.927,1.256,2.334,6.416,1.617,9.42c-0.309,1.293-6.37,2.974-7.679,1.892C99.875,200.371,98.876,196.446,96.502,191.841z
			 M100.052,194.769c1.131,3.428,2.699,6.508,6.117,4.942c1.319-0.604,1.052-4.676,1.642-7.908
			C104.505,193.066,102.544,193.815,100.052,194.769z"/>
		<path fill-rule="evenodd" clip-rule="evenodd" fill="#29A8DF" d="M105.993,204.098c5.038,8.11,5.213,10.145,1.14,12.122
			c-5.395,2.619-6.694,2.233-8.654-2.57C96.004,207.585,96.271,207.232,105.993,204.098z M98.357,209.55
			c1.856,2.05,3.268,3.914,5.044,5.313c0.36,0.284,3-1.139,3.034-1.851c0.097-1.993-0.62-4.026-1.057-6.247
			C102.696,207.83,100.908,208.539,98.357,209.55z"/>
		<path fill-rule="evenodd" clip-rule="evenodd" fill="#29A8DF" d="M116.107,69.571c-1.648,12.05-3.298,24.101-4.946,36.151
			c-0.648-0.088-1.297-0.176-1.945-0.263c-0.445-12.306,3.034-24.108,5.211-36.078C114.987,69.445,115.547,69.508,116.107,69.571z"
			/>
		<path fill-rule="evenodd" clip-rule="evenodd" fill="#29A8DF" d="M98.028,107.546c0-13.686,0-27.37,0-41.055
			c0.234-0.017,0.469-0.032,0.702-0.049c0,13.689,0,27.379,0,41.067C98.497,107.522,98.263,107.534,98.028,107.546z"/>
		<path fill-rule="evenodd" clip-rule="evenodd" fill="#29A8DF" d="M104.908,105.516c0-12.35,0-24.7,0-37.05
			c0.39,0.006,0.779,0.012,1.168,0.017c0,12.364,0,24.729,0,37.093C105.688,105.556,105.298,105.536,104.908,105.516z"/>
	</g>
</g>
<g>
	<g>
		<g>
			<path fill="#FFFFFF" d="M163.449,37.81c34.057,0,66.075,13.262,90.156,37.344c24.082,24.082,37.344,56.1,37.344,90.156
				s-13.262,66.075-37.344,90.157c-24.081,24.082-56.1,37.344-90.156,37.344s-66.075-13.262-90.156-37.344
				c-24.082-24.082-37.344-56.1-37.344-90.157s13.262-66.075,37.344-90.156C97.374,51.072,129.393,37.81,163.449,37.81
				 M163.449,12.81c-84.225,0-152.5,68.276-152.5,152.5s68.275,152.5,152.5,152.5s152.5-68.277,152.5-152.5
				S247.674,12.81,163.449,12.81L163.449,12.81z"/>
		</g>
	</g>
	<g opacity="0.1">
		<path fill="#29A8DF" d="M163.449,37.81c34.057,0,66.075,13.262,90.156,37.344c24.082,24.082,37.344,56.1,37.344,90.156
			s-13.262,66.075-37.344,90.157c-24.081,24.082-56.1,37.344-90.156,37.344s-66.075-13.262-90.156-37.344
			c-24.082-24.082-37.344-56.1-37.344-90.157s13.262-66.075,37.344-90.156C97.374,51.072,129.393,37.81,163.449,37.81
			 M163.449,12.81c-84.225,0-152.5,68.276-152.5,152.5s68.275,152.5,152.5,152.5s152.5-68.277,152.5-152.5
			S247.674,12.81,163.449,12.81L163.449,12.81z"/>
	</g>
	<g>
		<path fill="#F65C2B" d="M178.777,3.829c0.986-0.022,2.052,0.068,3.117,0.157c-0.135,1.598-0.27,3.196-0.396,4.746
			c1.898,0.385,3.5,0.766,4.763,1.136c0.045,0.303,0.047,0.844-0.07,1.512c-0.135,0.762-0.314,1.222-0.443,1.396
			c-0.358,0.084-1.853-0.081-4.521-0.553c-0.143,1.646-0.285,3.291-0.469,4.881c1.105,0.146,2.162,0.283,3.21,0.468
			c0.028,0.398,0.048,0.845-0.037,1.32c-0.092,0.524-0.271,0.984-0.434,1.349c-0.749,0.064-1.783,0.078-3.056,0.051
			c-0.208,1.732-0.399,3.369-0.59,5.006c-0.868,0.191-1.895,0.157-3.134-0.062c0.111-1.749,0.216-3.451,0.376-5.192
			c-1.264-0.075-2.664-0.225-4.109-0.381c-0.359-0.751-0.42-1.795-0.186-3.129c1.567,0.031,3.126,0.11,4.582,0.22
			c0.104-1.702,0.303-3.386,0.51-5.119c-3.336-0.589-5.139-0.956-5.391-1.197c-0.075-0.407-0.031-0.939,0.078-1.559
			c0.102-0.572,0.234-1.04,0.508-1.483c1.59,0.183,3.313,0.438,5.182,0.719C178.424,6.666,178.572,5.268,178.777,3.829z
			 M196.502,15.607c-0.355,0.625-0.648,1.164-0.924,1.606c4.049,1.01,7.945,2.042,11.77,3.208c-0.127,0.715-0.412,1.5-0.819,2.411
			c-1.763-0.312-3.47-0.662-5.161-1.108c-0.397,1.699-0.827,3.295-1.287,4.786c2.684,0.67,5.47,1.309,8.343,2.014
			c-0.143,0.81-0.39,1.65-0.684,2.483c-2.907-0.514-5.759-1.065-8.553-1.658c-0.469,1.539-0.977,3.022-1.522,4.449
			c1.706,0.351,3.508,0.718,5.51,1.071c-0.185,1.049-0.423,1.842-0.619,2.396c-0.502,0.059-1.854-0.081-3.997-0.46
			c-5.56-1.079-9.767-2.02-12.575-2.811c-0.191-0.033-0.178-0.67,0.033-1.861c0.201-1.144,0.559-2.604,1.164-4.364
			c1.048,0.185,1.993,0.401,2.93,0.665c-0.371,2.097-0.629,3.279-0.773,3.549c1.364,0.34,3.015,0.729,5.008,1.13
			c0.43-1.595,0.842-3.095,1.294-4.538c-3.74-0.809-7.415-1.702-11.018-2.731l0.235-1.335c0.067-0.381,0.127-0.715,0.289-1.079
			c3.527,0.623,7.322,1.392,11.388,2.306c0.55-1.721,1.13-3.339,1.741-4.853c-1.405-0.396-2.801-0.839-4.188-1.329
			c-1.001,1.494-1.831,2.576-2.498,3.294c-1.096-0.194-1.921-0.536-2.513-1.083c1.397-2.898,3.06-5.355,4.895-7.391
			C194.999,14.654,195.807,15.092,196.502,15.607z M210.99,5.635c-0.002,0.295-0.04,0.779-0.157,1.447
			c-7.351-0.119-14.555-0.507-21.708-1.18c-0.146-0.566-0.148-1.107-0.057-1.632l0.228-1.286c7.276,0.253,14.521,0.696,21.692,1.274
			C211.047,4.76,211.057,5.254,210.99,5.635z M193.098,13.729c-0.941,0.325-1.85,0.46-2.725,0.403
			c-0.604-1.581-0.762-3.477-0.525-5.646c0.717-0.168,1.617-0.254,2.604-0.277C193.004,9.535,193.217,11.391,193.098,13.729z
			 M200.657,13.786c-0.942,0.325-1.842,0.412-2.718,0.355c-0.462-1.556-0.58-3.395-0.305-5.509c0.727-0.215,1.627-0.303,2.66-0.316
			C200.665,9.562,200.782,11.4,200.657,13.786z M210.084,10.487c-1.699,2.943-2.982,4.928-3.916,6.041
			c-1.191-0.21-2.104-0.617-2.725-1.268c1.112-2.408,2.358-4.448,3.838-6.153C208.408,9.405,209.312,9.859,210.084,10.487z
			 M207.803,37.604c-0.908,0.135-1.887,0.109-2.84-0.059c-0.255-1.618-0.359-3.258-0.311-4.92c1.043-0.062,2.068-0.028,3.069,0.148
			C207.882,34.375,207.898,35.95,207.803,37.604z"/>
		<path fill="#F65C2B" d="M254.948,41.11c-0.196,0.334-0.466,0.794-0.784,1.337c-0.415,0.709-0.793,1.161-1.048,1.404
			c-10.523-6.168-18.867-11.171-25.033-15.01c-0.003-0.283,0.248-0.808,0.739-1.643c0.293-0.501,0.67-0.954,1.131-1.357
			C238.389,30.787,246.726,35.898,254.948,41.11z"/>
		<path fill="#F65C2B" d="M281.936,52.076c0.761,0.629,1.508,1.395,2.254,2.159c-1.148,1.12-2.295,2.239-3.405,3.329
			c1.183,1.533,2.146,2.87,2.856,3.976c-0.163,0.258-0.516,0.669-1.041,1.097c-0.602,0.487-1.037,0.719-1.249,0.765
			c-0.327-0.171-1.349-1.273-3.056-3.377c-1.186,1.15-2.371,2.301-3.549,3.383c0.739,0.833,1.448,1.629,2.12,2.455
			c-0.24,0.319-0.516,0.669-0.892,0.974c-0.413,0.336-0.85,0.566-1.212,0.735c-0.607-0.44-1.398-1.108-2.343-1.962
			c-1.291,1.174-2.506,2.287-3.721,3.399c-0.783-0.425-1.535-1.122-2.329-2.099c1.229-1.248,2.421-2.467,3.682-3.678
			c-0.906-0.885-1.866-1.913-2.857-2.979c0.222-0.803,0.857-1.631,1.908-2.486c1.164,1.049,2.291,2.129,3.319,3.164
			c1.193-1.219,2.445-2.361,3.736-3.535c-2.137-2.629-3.258-4.086-3.292-4.434c0.209-0.357,0.592-0.73,1.08-1.127
			c0.45-0.366,0.856-0.634,1.354-0.789c1.082,1.179,2.217,2.499,3.446,3.934C279.812,53.989,280.84,53.029,281.936,52.076z
			 M287.627,72.581c-0.679,0.239-1.252,0.454-1.749,0.61c2.399,3.412,4.67,6.742,6.796,10.126c-0.562,0.458-1.293,0.864-2.195,1.287
			c-1.13-1.39-2.191-2.772-3.178-4.215c-1.412,1.023-2.781,1.948-4.104,2.774c1.59,2.263,3.277,4.569,4.987,6.982
			c-0.638,0.519-1.375,0.992-2.143,1.43c-1.86-2.291-3.654-4.574-5.38-6.85c-1.361,0.855-2.716,1.645-4.062,2.365
			c1.062,1.383,2.183,2.841,3.465,4.418c-0.826,0.671-1.525,1.114-2.037,1.405c-0.418-0.283-1.348-1.274-2.721-2.964
			c-3.496-4.454-6.062-7.918-7.668-10.354c-0.121-0.149,0.306-0.622,1.244-1.385c0.901-0.732,2.126-1.604,3.736-2.538
			c0.672,0.826,1.244,1.607,1.779,2.42c-1.652,1.343-2.621,2.068-2.907,2.176c0.81,1.15,1.803,2.525,3.048,4.133
			c1.367-0.925,2.661-1.788,3.946-2.584c-2.298-3.059-4.49-6.14-6.54-9.275l1.052-0.854c0.301-0.244,0.563-0.458,0.925-0.627
			c2.258,2.779,4.624,5.844,7.099,9.195c1.542-0.941,3.04-1.784,4.492-2.528c-0.804-1.219-1.569-2.467-2.296-3.746
			c-1.734,0.474-3.07,0.749-4.045,0.855c-0.701-0.864-1.1-1.662-1.189-2.463c2.951-1.277,5.817-2.047,8.536-2.386
			C287.114,70.876,287.438,71.735,287.627,72.581z M281.774,96.604c-0.774-0.493-1.499-1.152-2.108-1.903
			c0.865-1.39,1.861-2.697,2.984-3.923c0.829,0.637,1.583,1.333,2.224,2.122C283.947,94.215,282.929,95.417,281.774,96.604z
			 M286.283,68.934c-0.924-0.371-1.699-0.864-2.324-1.479c0.576-1.592,1.699-3.127,3.297-4.613c0.652,0.343,1.39,0.866,2.15,1.495
			C288.957,65.701,287.902,67.242,286.283,68.934z M305.105,74.523c-0.194,0.221-0.539,0.563-1.064,0.99
			c-5.48-4.899-10.672-9.908-15.64-15.1c0.261-0.522,0.612-0.934,1.025-1.269l1.014-0.825c5.337,4.955,10.521,10.03,15.564,15.16
			C305.722,73.898,305.406,74.279,305.105,74.523z M291.959,73.922c-0.925-0.37-1.661-0.895-2.285-1.508
			c0.668-1.479,1.782-2.946,3.374-4.364c0.69,0.312,1.427,0.835,2.218,1.501C294.73,70.734,293.616,72.201,291.959,73.922z
			 M301.246,77.599c-3.211,1.113-5.481,1.772-6.915,2.003c-0.764-0.938-1.187-1.842-1.23-2.741c2.418-1.092,4.694-1.819,6.929-2.14
			C300.687,75.684,301.071,76.618,301.246,77.599z"/>
		<path fill="#F65C2B" d="M310.091,211.332c-4.493-2.412-8.625-4.896-12.405-7.407c-0.789,1.665-1.483,3.351-2.131,5.044
			c-0.994-0.205-1.855-0.58-2.603-1.031c1.487-5.523,2.685-8.439,3.645-8.785c2.667,1.441,6.449,3.706,11.421,6.908
			c0.861-4.171,1.826-7.875,3.005-11.189c0.409-0.064,0.893-0.014,1.556,0.123c0.569,0.118,1.081,0.273,1.524,0.513
			C313.085,200.437,311.75,205.695,310.091,211.332z M320.533,191.895c-2.248-0.365-4.637-0.761-7.148-1.279
			c-1.422-0.295-2.635-0.645-3.732-1.068c0.064-1.271,0.362-3.188,0.891-5.746c0.501-2.417,1.073-4.473,1.758-6.11
			c2.115,0.288,4.494,0.731,7.147,1.279c0.995,0.206,2.218,0.508,3.659,0.954c-0.174,1.793-0.51,3.898-1.02,6.362
			C321.617,188.561,321.084,190.428,320.533,191.895z M314.081,181.271l-1.176,5.687l5.64,1.166l1.176-5.687L314.081,181.271z
			 M327.768,206.141c-1.229-0.748-2.354-1.524-3.487-2.253c-1.3,4.376-2.61,8.801-3.92,13.225l-1.517-0.313
			c-0.664-0.137-1.203-0.396-1.686-0.694c1.269-5.175,2.646-9.931,4.137-14.268c-1.55-1.11-3.005-2.202-4.459-3.294
			c0.566-1.068,1.189-1.928,1.914-2.568c3.593,2.225,7.089,4.677,10.555,7.271C328.947,204.26,328.447,205.243,327.768,206.141z"/>
		<path fill="#F65C2B" d="M288.202,259.189c-0.328-0.206-0.78-0.488-1.313-0.822c-0.697-0.437-1.137-0.827-1.373-1.089
			c6.472-10.338,11.717-18.531,15.734-24.582c0.281,0.006,0.799,0.272,1.62,0.786c0.491,0.309,0.933,0.698,1.321,1.17
			C299.004,242.939,293.652,251.123,288.202,259.189z"/>
		<path fill="#F65C2B" d="M245.375,294.898c-1.82-4.764-3.318-9.347-4.534-13.72c-1.687,0.743-3.313,1.563-4.911,2.421
			c-0.62-0.807-1.025-1.654-1.295-2.484c4.74-3.204,7.554-4.626,8.506-4.258c1.073,2.835,2.451,7.022,4.116,12.697
			c3.382-2.589,6.534-4.76,9.596-6.495c0.351,0.219,0.683,0.573,1.096,1.112c0.353,0.461,0.638,0.912,0.817,1.385
			C254.77,288.618,250.318,291.722,245.375,294.898z M262.142,302.542c-0.44-1.371-0.782-2.693-1.165-3.987
			c-3.847,2.46-7.732,4.947-11.619,7.437l-0.94-1.229c-0.412-0.538-0.649-1.087-0.819-1.628c4.344-3.084,8.498-5.778,12.464-8.083
			c-0.444-1.854-0.831-3.632-1.216-5.409c1.129-0.438,2.161-0.681,3.129-0.69c1.262,4.034,2.3,8.177,3.223,12.408
			C264.265,301.891,263.242,302.309,262.142,302.542z M265.992,287.033c-1.46-1.747-3.009-3.609-4.568-5.646
			c-0.883-1.152-1.571-2.211-2.123-3.25c0.881-0.919,2.358-2.174,4.434-3.762c1.96-1.501,3.738-2.682,5.328-3.472
			c1.41,1.603,2.92,3.494,4.568,5.646c0.618,0.807,1.346,1.835,2.142,3.114c-1.304,1.242-2.936,2.614-4.933,4.146
			C268.994,285.222,267.368,286.283,265.992,287.033z M268.065,274.775l-4.611,3.532l3.503,4.572l4.611-3.531L268.065,274.775z"/>
		<path fill="#F65C2B" d="M114.294,326.861l0.311-1.318c0.157-0.659,0.362-1.108,0.534-1.416c2.731,0.646,5.275,1.248,7.629,1.805
			c0.243-1.234,0.463-2.377,0.684-3.519c-3.57-1.093-6.188-2.011-7.852-2.752c-0.088-1.313,0.113-3.007,0.604-5.079
			c0.49-2.071,1.011-3.64,1.525-4.762c1.266-0.098,5.03,0.594,11.247,2.064c8.41,2.287,13.75,4.098,15.916,5.455
			c0.035,0.903-0.194,2.291-0.64,4.176c-0.324,1.365-0.844,2.934-1.655,4.681c-0.493-0.017-0.985-0.034-1.552-0.168
			c-0.564-0.134-1.061-0.351-1.509-0.556c0.856-2.781,1.438-5.031,1.841-6.727c-4.009-1.346-8.297-2.559-12.809-3.676
			c-2.918-0.689-5.722-1.453-8.467-2.251c-0.295,1.671-0.628,3.283-0.948,4.848c1.626,0.484,3.241,1.016,4.915,1.511
			c0.232-0.989,0.409-1.941,0.574-2.848c1.079,0.057,2.091,0.196,3.08,0.43c-0.115,1.117-0.277,2.223-0.486,3.316
			c1.401,0.381,2.803,0.763,4.157,1.133c0.163-1.105,0.36-2.152,0.548-3.152c1.08,0.057,2.092,0.196,3.081,0.43
			c-0.126,1.164-0.263,2.375-0.437,3.527l3.25,0.769c0.03,0.505-0.035,0.986-0.146,1.458c-0.123,0.518-0.27,0.93-0.501,1.273
			c-0.953-0.176-1.999-0.373-3.047-0.571c-0.195,1.246-0.38,2.446-0.622,3.682c2.071,0.49,3.897,0.972,5.488,1.397
			c0.049,0.211-0.025,0.74-0.204,1.494c-0.112,0.471-0.271,0.93-0.57,1.356C130.18,330.967,122.207,328.933,114.294,326.861z
			 M136.955,309.894c-0.751,0.866-1.492,1.686-2.279,2.494c-1.018-0.54-1.928-1.103-2.733-1.691
			c0.485-0.581,0.971-1.162,1.456-1.743c-5.795-1.57-11.463-3.259-17.119-4.994c0.223-0.942,0.54-1.862,0.904-2.771
			c6.357,1.504,12.552,3.068,18.607,4.799c1.12-1.376,2.194-2.763,3.21-4.114c-2.434-1.271-4.915-2.555-7.444-3.849
			c-1.129,1.622-2.319,3.081-3.535,4.435c-0.98-0.48-1.843-1.033-2.627-1.716c0.922-1.373,1.96-2.818,3.045-4.253
			c-1.689-0.847-3.427-1.705-5.115-2.553c0.331-0.766,0.777-1.605,1.377-2.459c1.889,0.846,3.778,1.689,5.572,2.513
			c0.555-0.665,1.074-1.388,1.593-2.11c1.062,0.352,1.937,0.856,2.604,1.61c-0.366,0.709-0.771,1.359-1.208,1.952
			c3.639,1.855,7.266,3.758,10.814,5.791c-1.582,2.062-3.131,3.983-4.646,5.764c3.169,0.898,6.326,1.844,9.379,2.815
			c-0.245,1.036-0.573,2.003-1.009,2.794C144.174,311.75,140.559,310.845,136.955,309.894z M126.054,326.759
			c1.507,0.356,2.92,0.69,4.228,1.05c0.184-1.2,0.416-2.388,0.588-3.541c-1.365-0.323-2.742-0.599-4.154-0.933
			C126.541,324.487,126.321,325.629,126.054,326.759z"/>
		<path fill="#F65C2B" d="M67.74,301.542c1.155-0.858,2.297-1.609,3.396-2.387c-3.567-2.848-7.176-5.722-10.783-8.596l0.859-1.288
			c0.375-0.563,0.818-0.966,1.275-1.301c4.319,3.116,8.21,6.179,11.671,9.187c1.61-1.019,3.168-1.957,4.726-2.896
			c0.777,0.927,1.34,1.826,1.662,2.738c-3.41,2.494-6.994,4.814-10.701,7.053C69.041,303.341,68.317,302.509,67.74,301.542z
			 M69.564,283.211c3.92-3.259,7.773-6.155,11.52-8.716c-1.247-1.356-2.548-2.632-3.876-3.868c0.563-0.845,1.235-1.502,1.935-2.025
			c4.561,3.452,6.813,5.654,6.771,6.674c-2.336,1.932-5.853,4.587-10.688,7.992c3.543,2.364,6.614,4.648,9.242,6.984
			c-0.093,0.402-0.322,0.832-0.698,1.396c-0.321,0.483-0.657,0.899-1.047,1.222C78.538,290.074,74.164,286.864,69.564,283.211z
			 M83.658,300.184c1.182-1.945,2.444-4.012,3.868-6.145c0.807-1.207,1.585-2.2,2.392-3.059c1.154,0.537,2.817,1.531,4.99,2.982
			c2.053,1.37,3.743,2.674,5.003,3.922c-1.061,1.852-2.364,3.891-3.868,6.144c-0.564,0.846-1.303,1.865-2.257,3.032
			c-1.597-0.833-3.421-1.935-5.514-3.332C86.341,302.439,84.812,301.244,83.658,300.184z M95.926,298.191l-4.83-3.225l-3.196,4.789
			l4.829,3.225L95.926,298.191z"/>
		<path fill="#F65C2B" d="M23.117,249.043c3.453-2.491,6.707-4.599,9.652-6.306c0.248,0.179,0.531,0.571,0.898,1.081
			c0.453,0.629,0.697,1.049,0.664,1.252c-2.314,1.67-4.698,3.329-7.139,4.909c2.33,3.81,4.422,7.372,6.238,10.716
			c-0.852,0.555-1.684,0.975-2.492,1.26C28.74,258.41,26.109,254.103,23.117,249.043z M34.247,256.945
			c2.409-2.037,4.836-3.965,7.308-5.749c-2.49-3.453-5.436-7.535-8.91-12.188c7.613-5.491,12.2-8.562,13.852-9.334
			c0.418,0.415,0.978,1.025,1.601,1.889c1.415,1.962,2.384,3.471,2.984,4.469c-0.257,0.305-0.571,0.531-0.925,0.786
			c-0.393,0.283-0.707,0.51-1.037,0.63l-2.746-3.807c-2.982,2.151-6.043,4.359-9.133,6.527c2.916,4.043,5.768,7.832,8.547,11.437
			c-1.686,1.633-4.88,4.235-9.594,7.874c-0.265-0.285-0.617-0.688-1.092-1.182C34.818,257.904,34.547,257.444,34.247,256.945z
			 M50.015,255.894c2.651,3.098,5.063,6.192,7.3,9.292c-3.183,2.951-6.319,5.633-9.402,7.976c-2.546-3.116-5.098-6.406-7.646-9.938
			C43.479,260.728,46.719,258.271,50.015,255.894z M44.957,238.957c3.414,3.326,6.67,6.765,9.74,10.277
			c-0.666,0.896-1.375,1.648-2.211,2.311c-3.419-3.5-6.647-6.899-9.684-10.198C43.379,240.573,44.102,239.754,44.957,238.957z
			 M52.947,264.756l-3.549-4.421l-4.674,3.609l3.582,4.636L52.947,264.756z"/>
		<path fill="#F65C2B" d="M6.371,110.686l1.314,0.332c0.656,0.166,1.104,0.379,1.407,0.555c-0.688,2.723-1.327,5.256-1.919,7.602
			c1.23,0.261,2.369,0.499,3.506,0.736c1.147-3.554,2.104-6.157,2.872-7.81c1.315-0.067,3.003,0.159,5.069,0.681
			c2.064,0.521,3.623,1.065,4.736,1.596c0.08,1.268-0.669,5.021-2.233,11.216c-2.414,8.374-4.306,13.687-5.695,15.83
			c-0.903,0.021-2.288-0.229-4.165-0.702c-1.361-0.344-2.921-0.887-4.656-1.725c0.025-0.494,0.051-0.986,0.192-1.549
			c0.142-0.563,0.366-1.056,0.579-1.501c2.768,0.898,5.008,1.514,6.697,1.94c1.405-3.986,2.684-8.256,3.868-12.748
			c0.735-2.908,1.54-5.7,2.38-8.433c-1.666-0.321-3.273-0.677-4.834-1.021c-0.508,1.618-1.064,3.226-1.584,4.891
			c0.985,0.249,1.937,0.438,2.838,0.617c-0.072,1.079-0.227,2.089-0.477,3.073c-1.113-0.131-2.217-0.31-3.309-0.535
			c-0.401,1.395-0.805,2.791-1.194,4.14c1.104,0.179,2.146,0.393,3.144,0.595c-0.072,1.079-0.228,2.088-0.477,3.074
			c-1.162-0.145-2.369-0.3-3.52-0.49l-0.818,3.237c-0.505,0.022-0.985-0.049-1.455-0.168c-0.516-0.13-0.927-0.284-1.266-0.519
			c0.189-0.951,0.404-1.995,0.617-3.039c-1.244-0.215-2.44-0.417-3.672-0.678c-0.521,2.064-1.031,3.882-1.48,5.466
			c-0.212,0.046-0.739-0.037-1.49-0.227c-0.469-0.118-0.926-0.284-1.348-0.591C2.027,126.509,4.182,118.568,6.371,110.686z
			 M6.296,122.446c-0.379,1.501-0.733,2.909-1.112,4.211c1.197,0.202,2.381,0.452,3.531,0.642c0.344-1.36,0.639-2.733,0.994-4.141
			C8.561,122.969,7.422,122.73,6.296,122.446z M22.994,133.602c-0.854-0.766-1.662-1.518-2.459-2.318
			c0.555-1.008,1.131-1.91,1.732-2.707c0.574,0.494,1.147,0.988,1.721,1.482c1.658-5.77,3.432-11.41,5.254-17.04
			c0.938,0.237,1.853,0.567,2.754,0.945c-1.599,6.334-3.256,12.504-5.08,18.532c1.359,1.142,2.73,2.236,4.065,3.272
			c1.31-2.414,2.63-4.876,3.962-7.384c-1.605-1.154-3.047-2.367-4.381-3.603c0.495-0.973,1.061-1.829,1.755-2.602
			c1.36,0.942,2.788,2.002,4.206,3.108c0.872-1.676,1.757-3.398,2.63-5.075c0.763,0.343,1.595,0.802,2.438,1.414
			c-0.874,1.876-1.745,3.751-2.596,5.534c0.656,0.564,1.37,1.094,2.085,1.624c-0.365,1.056-0.884,1.923-1.648,2.578
			c-0.703-0.377-1.348-0.79-1.934-1.237c-1.91,3.611-3.867,7.209-5.953,10.726c-2.038-1.613-3.936-3.19-5.693-4.732
			c-0.947,3.155-1.94,6.298-2.957,9.335c-1.031-0.261-1.993-0.603-2.778-1.051C21.029,140.791,21.988,137.19,22.994,133.602z"/>
		<path fill="#F65C2B" d="M34.199,80.456c1.91,1.238,3.939,2.561,6.031,4.046c1.184,0.841,2.152,1.648,2.988,2.479
			c-0.571,1.138-1.614,2.772-3.127,4.902c-1.43,2.013-2.781,3.664-4.066,4.89c-1.82-1.115-3.822-2.478-6.031-4.048
			c-0.828-0.588-1.826-1.356-2.965-2.343c0.879-1.572,2.034-3.365,3.49-5.417C31.865,83.072,33.105,81.578,34.199,80.456z
			 M33.302,64.502c0.825,1.18,1.543,2.342,2.288,3.465c2.951-3.484,5.928-7.009,8.906-10.532l1.264,0.896
			c0.553,0.393,0.941,0.848,1.264,1.313c-3.241,4.229-6.415,8.028-9.523,11.4c0.972,1.641,1.864,3.226,2.758,4.81
			c-0.948,0.751-1.864,1.288-2.786,1.583c-2.395-3.482-4.61-7.134-6.741-10.903C31.465,65.75,32.319,65.051,33.302,64.502z
			 M35.835,92.778l3.363-4.735l-4.696-3.335l-3.362,4.735L35.835,92.778z M51.577,66.857c3.145,4.014,5.929,7.95,8.38,11.771
			c1.392-1.208,2.705-2.472,3.979-3.764c0.828,0.589,1.466,1.279,1.968,1.992c-3.584,4.46-5.851,6.649-6.869,6.579
			c-1.863-2.393-4.415-5.987-7.681-10.918c-2.465,3.472-4.837,6.477-7.249,9.037c-0.401-0.105-0.824-0.347-1.377-0.739
			c-0.472-0.335-0.879-0.684-1.189-1.082C44.455,75.63,47.791,71.351,51.577,66.857z"/>
		<path fill="#F65C2B" d="M73.938,48.992c-2.535,2.127-5.058,4.012-7.581,5.723c-2.613-2.905-4.983-5.8-7.047-8.67
			c2.588-2.047,5.31-4.068,8.194-6.023C69.756,42.998,71.9,45.987,73.938,48.992z M66.889,50.671l2.881-2.304l-3.093-4.219
			l-3.056,2.307L66.889,50.671z M69.027,37.527c-0.363-0.279-0.676-0.652-0.975-1.094c-0.298-0.44-0.57-0.841-0.707-1.216
			c1.896-1.343,4.231-2.985,7.116-4.941l3.484-2.362c-0.945-0.704-1.784-1.597-2.599-2.624c0.426-0.755,1.01-1.444,1.811-2.161
			c1.158,0.501,2.4,1.471,3.713,2.803c3.859-2.499,6.73-4.388,8.64-5.624c0.259,0.294,0.542,0.627,0.813,1.027l0.761,1.121
			c-0.931,1.041-5.897,4.583-14.829,10.639c-1.041,0.707-1.924,1.304-2.711,1.779c3.032,6.715,5.564,13.125,7.543,19.149
			c0,0-0.506,0.286-1.576,0.777c-0.415,0.164-0.817,0.262-1.166,0.264c-2.687-5.429-5.084-11.638-7.26-18.641
			C70.258,36.927,69.563,37.281,69.027,37.527z M79.307,36.99c0.373-0.311,0.826-0.677,1.387-1.058
			c0.441-0.298,0.936-0.517,1.486-0.655l3.394,5.007c0.828-0.503,1.577-0.952,2.177-1.359c0.352,0.347,0.703,0.693,0.975,1.093
			c0.272,0.401,0.504,0.828,0.707,1.217c-0.506,0.46-1.213,1.057-2.066,1.693c0.842,1.242,1.684,2.483,2.498,3.686
			c0.964-0.303,1.941-0.673,2.851-1.056c0.435,0.641,0.858,1.522,1.255,2.54c-0.815,0.437-1.617,0.805-2.367,1.079
			c1.127,1.749,2.295,3.472,3.49,5.234c-0.266,0.297-0.692,0.703-1.293,1.11c-0.642,0.435-1.203,0.641-1.58,0.604l-3.883-5.729
			c-0.727,1.604-1.466,3.099-2.207,4.42c-0.915-0.141-1.789-0.482-2.545-1.081c0.775-2.046,1.672-4.174,2.688-6.383l-1.684-2.483
			c-1.122,0.76-1.99,1.29-2.553,1.496c-0.376-0.212-0.701-0.519-1.026-0.999c-0.271-0.399-0.503-0.828-0.655-1.31
			c0.347-0.353,1.134-1.002,2.416-1.871C81.438,40.223,80.311,38.473,79.307,36.99z M98.172,32.737l0.787,1.161
			c-0.854,0.812-1.705,1.624-2.533,2.302c2.686,3.616,5.115,6.939,7.272,10.036c-0.317,0.567-0.997,1.203-2.118,1.964
			c-1.193-1.414-2.357-2.788-3.47-4.255c-0.663,0.918-1.447,1.917-2.433,3.052c-0.781-0.289-1.429-0.728-2.049-1.3
			c0.713-1.535,1.574-2.938,2.557-4.247c-0.813-1.027-1.586-2.081-2.32-3.163c-0.906,0.731-1.828,1.356-2.749,1.98
			c-0.704-0.692-1.287-1.466-1.857-2.308c0.88-0.772,1.76-1.544,2.708-2.303c-0.909-1.255-1.807-2.576-2.701-3.897
			c0.732-0.731,1.518-1.382,2.32-1.925c1.002,1.308,2.006,2.615,2.955,3.843c0.935-0.692,1.868-1.384,2.83-2.035
			C97.588,31.963,97.9,32.336,98.172,32.737z M104.834,38.51c0.341,0.764,0.629,1.62,0.825,2.598
			c-1.417,0.669-2.677,1.055-3.735,1.13c-0.357-1.044-0.566-1.955-0.679-2.639C102.342,39.146,103.561,38.789,104.834,38.51z"/>
	</g>
</g>
</svg>
