<?xml version="1.0" encoding="utf-8"?>
<!-- Generator: Adobe Illustrator 16.0.4, SVG Export Plug-In . SVG Version: 6.00 Build 0)  -->
<!DOCTYPE svg PUBLIC "-//W3C//DTD SVG 1.1//EN" "http://www.w3.org/Graphics/SVG/1.1/DTD/svg11.dtd">
<svg version="1.1" id="Layer_1" xmlns="http://www.w3.org/2000/svg" xmlns:xlink="http://www.w3.org/1999/xlink" x="0px" y="0px"
	 width="215.146px" height="253.064px" viewBox="0 0 215.146 253.064" enable-background="new 0 0 215.146 253.064"
	 xml:space="preserve">
<g>
	<circle fill="#FF901E" cx="107.955" cy="145.492" r="107.573"/>
	<circle fill="#333333" cx="48.576" cy="84.512" r="8.956"/>
	<circle fill="#333333" cx="170.296" cy="84.512" r="8.956"/>
	<path fill="#333333" stroke="#333333" stroke-linejoin="round" stroke-miterlimit="10" d="M179.315,103.832
		c0,0,1.521,32.232-67.829,32.232c-75.392,0-67.596-32.232-67.596-32.232s-6.272,24.923,67.714,24.923
		C179.369,128.755,179.315,103.832,179.315,103.832z"/>
	<path fill="#FF901E" d="M43.891,59.278c0,0,2.698-61.738,19.208-55.785c16.511,5.953,18.576,45.439,18.576,45.439"/>
	<path fill="#FF901E" d="M169.761,57.677c0,0-2.698-61.738-19.208-55.785c-16.511,5.953-18.576,45.439-18.576,45.439"/>
	<path fill="#EE5A24" d="M65.646,48.578c0,0-0.801-27.227-7.207-27.227c-6.407,0-14.14,37.864-14.14,37.864
		S60.041,48.177,65.646,48.578z"/>
	<path fill="#EE5A24" d="M147.602,46.976c0,0,0.801-27.227,7.207-27.227s14.14,37.864,14.14,37.864S153.207,46.576,147.602,46.976z"
		/>
	<path opacity="0.15" fill="#F65C2B" d="M189.154,74.935c8.699,14.264,13.713,31.021,13.713,48.95
		c0,51.995-42.15,94.145-94.146,94.145c-51.994,0-94.146-42.15-94.146-94.145c0-20.333,6.447-39.161,17.408-54.551
		C12.462,88.809,0.382,115.739,0.382,145.492c0,59.411,48.162,107.573,107.573,107.573c59.41,0,107.572-48.162,107.572-107.573
		C215.527,118.495,205.581,93.823,189.154,74.935z"/>
	<path opacity="0.1" fill="#F65C2B" d="M65.646,49.378c0,0,5.205-20.42,0-32.432c-5.205-12.012-15.722,5.606-17.07,14.615
		S44.3,60.015,44.3,60.015S60.241,46.175,65.646,49.378z"/>
	<path opacity="0.05" fill="#F65C2B" d="M65.646,49.378c0,0,5.205-20.42,0-32.432c-5.205-12.012-15.722,5.606-17.07,14.615
		S44.3,60.015,44.3,60.015S60.241,46.175,65.646,49.378z"/>
	<path opacity="0.05" fill="#F65C2B" d="M147.511,47.777c0,0-5.205-20.42,0-32.432c5.205-12.012,15.722,5.605,17.07,14.615
		c1.349,9.009,4.277,28.454,4.277,28.454S152.916,44.574,147.511,47.777z"/>
	<path fill="#BE272D" d="M114.494,136.665c0,0,7.271-6.881,17.751-9.891c15.749-4.523,34.701-0.919,37.504,13.094
		s13.372,18.295,18.551,14.954c5.179-3.341,18.849-5.048,18.915,9.301c0.068,14.984-47.743,45.681-66.02-18.622
		C138.608,136.398,125.903,136.671,114.494,136.665z"/>
</g>
</svg>
